<?xml version="1.0" encoding="iso-8859-1"?>
<!-- Generator: Adobe Illustrator 19.0.0, SVG Export Plug-In . SVG Version: 6.00 Build 0)  -->
<svg xmlns="http://www.w3.org/2000/svg" xmlns:xlink="http://www.w3.org/1999/xlink" version="1.1" id="Capa_1" x="0px" y="0px" viewBox="0 0 512 512" style="enable-background:new 0 0 512 512;" xml:space="preserve" width="512px" height="512px">
<g>
	<g>
		<path d="M459.818,85.304c-5.759-6.593-15.766-14.452-30.738-14.452h-16.364h-39.349H138.63H99.281H82.917    c-14.972,0-24.979,7.859-30.735,14.449c-9.143,10.457-13.858,24.725-13.277,40.176L48.93,392.996    c0.991,26.553,21.327,48.155,45.331,48.155h323.475c24.004,0,44.34-21.604,45.331-48.159l0.34-9.083    c0.155-4.139-3.074-7.621-7.213-7.775c-4.16-0.172-7.62,3.075-7.775,7.214l-0.34,9.084c-0.695,18.593-14.307,33.72-30.344,33.72    H391.16l28.454-340.297h9.466c7.499,0,14.04,3.136,19.444,9.323c6.614,7.565,10.017,18.126,9.58,29.74l-8.489,226.551    c-0.155,4.139,3.074,7.62,7.213,7.775c4.154,0.174,7.62-3.075,7.775-7.214l8.49-226.552    C473.674,110.027,468.959,95.758,459.818,85.304z M364.402,85.853c-17.382,96.02-30.668,142.103-51.705,180.269    c-3.974,7.216-10.424,12.094-17.648,13.375c-12,2.049-23.838,2.46-39.05,2.46c-15.211,0-27.05-0.412-39.002-2.452    c-7.271-1.29-13.721-6.168-17.697-13.385c-21.036-38.165-34.322-84.247-51.704-180.267H364.402z M94.261,426.15    c-16.037,0-29.649-15.124-30.343-33.715l-10.026-267.52c-0.436-11.613,2.966-22.174,9.583-29.742    c5.402-6.184,11.943-9.32,19.442-9.32h9.466l28.454,340.297H94.261z M376.113,426.107h-40.001    c-0.354-3.702-0.963-8.588-2.006-14.166c-0.761-4.071-4.674-6.758-8.75-5.994c-4.071,0.761-6.754,4.679-5.993,8.75    c0.823,4.4,1.342,8.319,1.674,11.453H190.971c1.186-11.071,4.766-32.139,15.459-49.025c2.099-3.373,4.675-5.913,7.657-7.55    c0.03-0.016,0.059-0.032,0.088-0.049c10.373-5.877,28.406-7.971,41.824-7.971c13.417,0,31.45,2.094,41.824,7.971    c0.029,0.017,0.058,0.033,0.087,0.049c2.982,1.637,5.559,4.178,7.69,7.601c1.982,3.13,3.828,6.584,5.485,10.267    c1.7,3.777,6.14,5.46,9.917,3.761c3.777-1.7,5.46-6.14,3.761-9.917c-1.947-4.327-4.131-8.41-6.46-12.086    c-3.466-5.569-7.883-9.858-13.129-12.749c-16.249-9.181-41.743-9.896-49.175-9.896c-7.432,0-32.925,0.714-49.174,9.895    c-5.247,2.891-9.664,7.18-13.098,12.699c-12.863,20.313-16.709,44.897-17.852,56.957h-39.991l-28.45-340.254h24.92    c17.948,99.647,31.7,147.392,53.81,187.506c6.173,11.206,16.456,18.83,28.261,20.924c13.044,2.227,25.578,2.674,41.574,2.674    c15.996,0,28.53-0.447,41.622-2.683c11.757-2.086,22.04-9.709,28.212-20.914c22.111-40.116,35.863-87.861,53.811-187.508h24.921    L376.113,426.107z" fill="#FFFFFF"/>
	</g>
</g>
<g>
	<g>
		<path d="M494.648,58.01C475.257,37.877,437.407,28.5,375.53,28.5H138.402c-63.038,0-101.51,9.461-121.075,29.775    C-1.491,77.814-0.464,105.209,0.361,127.219l0.04,1.064c0.153,4.14,3.65,7.381,7.772,7.216c4.139-0.154,7.369-3.634,7.216-7.773    l-0.04-1.067c-0.944-25.197-0.581-44.105,12.781-57.978C44.449,51.737,80.52,43.5,138.402,43.5H375.53    c56.738,0,92.168,8.15,108.315,24.916c13.39,13.903,13.753,32.91,12.804,58.244l-10.024,267.513    c-1.536,40.984-32.439,74.328-68.888,74.328H94.26c-36.449,0-67.352-33.343-68.887-74.328l-8.805-234.974    c-0.155-4.14-3.641-7.385-7.775-7.214c-4.139,0.155-7.368,3.636-7.213,7.775l8.805,234.974    c0.887,23.688,10.003,45.924,25.667,62.612C51.883,474.212,72.555,483.5,94.26,483.5h323.477c21.705,0,42.377-9.288,58.208-26.154    c15.664-16.688,24.78-38.924,25.667-62.612l10.024-267.513C512.466,105.105,513.497,77.581,494.648,58.01z" fill="#FFFFFF"/>
	</g>
</g>
<g>
</g>
<g>
</g>
<g>
</g>
<g>
</g>
<g>
</g>
<g>
</g>
<g>
</g>
<g>
</g>
<g>
</g>
<g>
</g>
<g>
</g>
<g>
</g>
<g>
</g>
<g>
</g>
<g>
</g>
</svg>
