<?xml version="1.0" encoding="iso-8859-1"?>
<!-- Generator: Adobe Illustrator 19.0.0, SVG Export Plug-In . SVG Version: 6.00 Build 0)  -->
<svg xmlns="http://www.w3.org/2000/svg" xmlns:xlink="http://www.w3.org/1999/xlink" version="1.1" id="Capa_1" x="0px" y="0px" viewBox="0 0 512 512" style="enable-background:new 0 0 512 512;" xml:space="preserve" width="512px" height="512px">
<g>
	<g>
		<path d="M446.316,83.272c-3.138-2.704-7.873-2.352-10.578,0.786c-2.704,3.138-2.352,7.874,0.786,10.578    c7.685,6.622,14.703,13.851,21.032,21.57c-1.999,0.074-3.921,0.946-5.299,2.469c-0.098,0.108-4.606,4.999-14.412,12.563    c-24.879-39-68.056-62.898-114.664-62.898H188.82c-46.609,0-89.786,23.898-114.665,62.899    c-9.803-7.561-14.307-12.448-14.398-12.549c-1.358-1.517-3.251-2.389-5.228-2.485C86.467,77.336,134.891,52.5,189.008,52.5    h133.983c31.519,0,62.391,8.512,89.279,24.617c3.554,2.13,8.161,0.973,10.288-2.581c2.128-3.553,0.973-8.159-2.581-10.288    C390.762,46.75,357.225,37.5,322.992,37.5H189.008C84.789,37.5,0,122.289,0,226.508v58.983C0,389.711,84.789,474.5,189.008,474.5    H280c4.142,0,7.5-3.358,7.5-7.5c0-4.142-3.358-7.5-7.5-7.5h-90.992C93.06,459.5,15,381.44,15,285.492v-58.983    c0-36.361,11.218-70.147,30.364-98.095c-1.902,8.967-4.789,25.779-4.26,43.295c0,0.016,0.001,0.033,0.001,0.049    c0.52,17.71,4.482,31.801,11.766,42.038V256c0,4.142,3.358,7.5,7.5,7.5c4.142,0,7.5-3.358,7.5-7.5v-28.695    c14.389,8.583,35.421,14.101,58.972,20.277c24.024,6.301,51.254,13.441,74.805,24.964c24.348,11.998,42.272,60.191,47.123,77.746    c0.896,3.252,3.854,5.505,7.228,5.506c0.001,0,0.002,0,0.003,0c3.372,0,6.331-2.252,7.229-5.503    c4.852-17.557,22.776-65.75,47.104-77.739c23.57-11.532,50.8-18.672,74.824-24.973c23.552-6.177,44.586-11.694,58.972-20.275    v80.404c0,66.692-54.258,120.95-120.95,120.95H188.82c-66.692,0-120.95-54.258-120.95-120.95V288c0-4.142-3.358-7.5-7.5-7.5    c-4.142,0-7.5,3.358-7.5,7.5v19.71c0,74.963,60.987,135.95,135.95,135.95h134.36c74.963,0,135.95-60.987,135.95-135.95v-93.915    c7.286-10.242,11.247-24.332,11.767-42.041c0-0.002,0-0.003,0-0.005c0-0.012,0-0.024,0.001-0.036    c0.53-17.614-2.39-34.508-4.291-43.439c19.61,28.66,30.393,62.802,30.393,98.233v58.983c0,95.95-78.06,174.01-174.008,174.01    H312.25c-4.142,0-7.5,3.358-7.5,7.5c0,4.142,3.358,7.5,7.5,7.5h10.742C427.211,474.5,512,389.711,512,285.492v-58.983    C512,171.451,488.059,119.244,446.316,83.272z M188.82,83.34h134.36c41.748,0,80.397,21.557,102.461,56.676    c-12.23,8.242-28.992,18.053-50.978,27.923C326.67,189.602,275.528,216.057,256,259.775    c-19.528-43.719-70.672-70.175-118.677-91.843c-21.979-9.867-38.737-19.676-50.965-27.916    C108.422,104.897,147.072,83.34,188.82,83.34z M58.771,138.175c11.941,10.018,34.979,26.638,72.396,43.436    c40.879,18.452,84.177,40.435,105.144,73.35c-14.184-15.367-35.191-30.978-65.784-40.036    c-46.533-13.753-85.993-30.17-114.482-47.602C56.058,156.422,57.42,145.913,58.771,138.175z M443.763,208.883    c-10.379,10.544-35.653,17.172-62.41,24.189c-24.702,6.478-52.699,13.821-77.63,26.018    c-23.125,11.396-39.168,43.959-47.723,65.933c-8.556-21.974-24.603-54.541-47.742-65.942    c-24.912-12.188-52.909-19.531-77.611-26.009c-26.757-7.017-52.031-13.646-62.419-24.197c-5.189-5.255-8.793-13.175-10.672-23.27    c28.659,16.152,65.137,30.824,108.715,43.703c27.557,8.16,49.797,23.094,66.102,44.388c12.247,15.994,16.384,29.803,16.418,29.921    c0.923,3.214,3.864,5.429,7.208,5.429c3.344,0,6.285-2.215,7.208-5.429c0.157-0.545,16.425-54.738,82.517-74.308    c43.58-12.88,80.059-27.552,108.719-43.704C452.564,195.7,448.957,203.622,443.763,208.883z M341.47,214.925    c-30.59,9.058-51.597,24.667-65.78,40.034c20.967-32.914,64.262-54.896,105.13-73.342c37.432-16.805,60.474-33.429,72.415-43.447    c1.35,7.727,2.71,18.226,2.722,29.152C427.467,184.754,388.006,201.171,341.47,214.925z" fill="#FFFFFF"/>
	</g>
</g>
<g>
</g>
<g>
</g>
<g>
</g>
<g>
</g>
<g>
</g>
<g>
</g>
<g>
</g>
<g>
</g>
<g>
</g>
<g>
</g>
<g>
</g>
<g>
</g>
<g>
</g>
<g>
</g>
<g>
</g>
</svg>
