<?xml version="1.0" encoding="iso-8859-1"?>
<!-- Generator: Adobe Illustrator 19.0.0, SVG Export Plug-In . SVG Version: 6.00 Build 0)  -->
<svg xmlns="http://www.w3.org/2000/svg" xmlns:xlink="http://www.w3.org/1999/xlink" version="1.1" id="Capa_1" x="0px" y="0px" viewBox="0 0 512 512" style="enable-background:new 0 0 512 512;" xml:space="preserve" width="512px" height="512px">
<g>
	<g>
		<path d="M509.585,263.167c-2.142-2.756-5.376-4.377-8.874-4.449l-21.868-0.448c0.008-0.758,0.026-1.508,0.026-2.27    c0-35.071-7.928-68.633-23.563-99.753c-1.86-3.701-6.369-5.196-10.069-3.334c-3.701,1.859-5.194,6.368-3.335,10.069    c14.576,29.011,21.967,60.308,21.967,93.019c0,0.659-0.016,1.307-0.022,1.963l-24.996-0.512c0.004-0.486,0.018-0.963,0.018-1.451    c0-100.631-81.87-182.5-182.501-182.5c-79.743,0-150.582,52.42-174.235,128.159l-26.139,0.284    c11.267-41.769,35.71-79.492,69.541-107.008C162.349,64.991,208.813,48.5,256.367,48.5c67.399,0,130.85,32.938,169.732,88.108    c2.387,3.384,7.066,4.197,10.451,1.81c3.386-2.386,4.196-7.065,1.811-10.451C396.673,68.814,328.637,33.5,256.367,33.5    c-50.991,0-100.816,17.685-140.299,49.798c-37.364,30.39-64.047,72.401-75.612,118.814l-18.762,0.204    c-4.71,0.05-8.869,2.904-10.597,7.271L0.801,235.622c-1.379,3.487-0.961,7.434,1.119,10.556c2.091,3.141,5.598,5.059,9.379,5.131    l22.623,0.437c-0.026,1.414-0.056,2.826-0.056,4.254c0,59.432,23.145,115.306,65.169,157.331    c42.026,42.025,97.9,65.169,157.332,65.169c51.781,0,102.207-18.18,141.99-51.192c37.669-31.257,64.105-74.267,74.927-121.645    h21.607c5.391,0,10.007-3.654,11.226-8.887l5.582-23.986C512.485,269.414,511.715,265.906,509.585,263.167z M388.778,415.765    c-37.097,30.783-84.122,47.735-132.411,47.735C141.95,463.5,48.866,370.416,48.866,256c0-1.332,0.028-2.647,0.052-3.964    l25.002,0.483c-0.022,1.159-0.054,2.315-0.054,3.481c0,100.631,81.87,182.5,182.501,182.5c41.53,0,80.686-13.648,113.237-39.469    c30.02-23.814,52.008-56.796,62.388-93.367h25.883C447.327,348.52,423.029,387.344,388.778,415.765z M492.138,290.664h-24.837    c-0.075-0.001-0.151-0.001-0.226,0h-62.911c-4.143,0-7.5,3.358-7.5,7.5c0,4.142,3.357,7.5,7.5,7.5h12.181    c-9.966,31.928-29.621,60.64-56.064,81.616c-29.871,23.696-65.804,36.221-103.915,36.221c-92.36,0-167.501-75.14-167.501-167.5    c0-1.07,0.03-2.129,0.05-3.192l98.521,1.902l-44.539,37.73c-2.401,2.034-3.277,5.35-2.194,8.304    c1.083,2.955,3.896,4.918,7.042,4.918h224.252c4.143,0,7.5-3.358,7.5-7.5c0-4.142-3.357-7.5-7.5-7.5H168.202l44.085-37.346    c2.381-2.017,3.265-5.297,2.219-8.236c-1.046-2.939-3.802-4.925-6.922-4.985L16.621,236.41l7.562-19.121l103.891-1.127    c4.143-0.045,7.464-3.439,7.419-7.581c-0.045-4.114-3.394-7.418-7.498-7.418c-0.027,0-0.056,0-0.083,0l-29.944,0.325    C121.072,134.48,184.817,88.5,256.367,88.5c92.36,0,167.501,75.14,167.501,167.5c0,0.385-0.012,0.761-0.014,1.144l-106.002-2.17    l45.571-43.378c2.232-2.125,2.938-5.399,1.777-8.255c-1.16-2.855-3.9-4.709-7.029-4.677l-198.255,2.151    c-4.143,0.045-7.464,3.439-7.419,7.581c0.045,4.114,3.394,7.418,7.498,7.418c0.027,0,0.056,0,0.083,0l179.2-1.944l-44.96,42.797    c-2.201,2.095-2.921,5.312-1.821,8.146c1.1,2.833,3.8,4.723,6.839,4.785l131.413,2.69c0.005,0,0.01,0.001,0.015,0.002    c0.131,0.007,0.262,0.01,0.391,0.01c0.015,0,0.029-0.002,0.043-0.002l39.556,0.81c0.015,0.001,0.029,0.004,0.044,0.004    c0.119,0.006,0.238,0.008,0.356,0.008c0.021,0,0.042-0.003,0.063-0.003l24.885,0.509L492.138,290.664z" fill="#FFFFFF"/>
	</g>
</g>
<g>
</g>
<g>
</g>
<g>
</g>
<g>
</g>
<g>
</g>
<g>
</g>
<g>
</g>
<g>
</g>
<g>
</g>
<g>
</g>
<g>
</g>
<g>
</g>
<g>
</g>
<g>
</g>
<g>
</g>
</svg>
