<?xml version="1.0" encoding="iso-8859-1"?>
<!-- Generator: Adobe Illustrator 19.0.0, SVG Export Plug-In . SVG Version: 6.00 Build 0)  -->
<svg xmlns="http://www.w3.org/2000/svg" xmlns:xlink="http://www.w3.org/1999/xlink" version="1.1" id="Capa_1" x="0px" y="0px" viewBox="0 0 512 512" style="enable-background:new 0 0 512 512;" xml:space="preserve" width="512px" height="512px">
<g>
	<g>
		<path d="M213.25,275.175l-13.029-7.522c-3.213-1.83-7.207-1.828-10.46,0.021l-21.838,12.604    c-10.63,6.153-14.385,19.697-8.355,30.217c2.977,5.147,7.838,8.775,13.686,10.215c1.798,0.442,3.619,0.661,5.429,0.661    c3.917,0,7.78-1.025,11.236-3.025l21.795-12.58c3.26-1.858,5.286-5.352,5.286-9.115v-14.98    C217,278.99,215.57,276.515,213.25,275.175z M202,294.054l-19.587,11.305c-1.663,0.964-3.694,1.25-5.574,0.786    c-1.849-0.455-3.372-1.577-4.272-3.134c-1.887-3.292-0.572-7.757,2.862-9.745l19.58-11.302L202,286V294.054z" fill="#FFFFFF"/>
	</g>
</g>
<g>
	<g>
		<path d="M255.938,148.32c-0.146-0.002-0.289-0.004-0.434-0.004c-11.906,0-21.739,9.723-22.013,21.873c0,0.002,0,0.004,0,0.005    l-0.551,25.214c-0.068,3.708,1.852,7.218,5.049,9.184l12.82,7.78c1.194,0.724,2.542,1.088,3.891,1.088    c1.239,0,2.48-0.307,3.604-0.923l13.162-7.213c3.248-1.794,5.328-5.215,5.432-8.971l0.55-25.185    C277.725,158.854,268.088,148.605,255.938,148.32z M261.957,193.431l-7.067,3.872l-6.897-4.185l0.495-22.595    c0.092-3.98,3.387-7.263,7.126-7.205c3.796,0.089,6.927,3.529,6.837,7.518L261.957,193.431z" fill="#FFFFFF"/>
	</g>
</g>
<g>
	<g>
		<path d="M278.319,238.004l-17.938-10.352c-3.213-1.829-7.206-1.828-10.462,0.022l-16.395,9.469    c-3.229,1.875-5.234,5.356-5.234,9.087v18.899c0,3.727,2.004,7.208,5.25,9.096l16.416,9.479c1.604,0.915,3.402,1.373,5.205,1.373    c1.813,0,3.629-0.464,5.259-1.393l16.412-9.472c3.231-1.88,5.239-5.36,5.239-9.084V244.5    C282.07,241.82,280.64,239.344,278.319,238.004z M255.171,269.395l-11.881-6.861v-13.709l11.88-6.861l11.899,6.867v13.697h0.001    L255.171,269.395z" fill="#FFFFFF"/>
	</g>
</g>
<g>
	<g>
		<path d="M342.679,280.273l-21.839-12.604c-3.213-1.849-7.218-1.856-10.49,0.006l-12.99,7.5c-2.32,1.34-3.75,3.815-3.75,6.495    v14.98c0,3.76,2.029,7.253,5.26,9.095l21.813,12.596c3.462,2.004,7.327,3.03,11.246,3.03c1.809,0,3.63-0.219,5.428-0.661    c5.848-1.439,10.708-5.067,13.686-10.215c0.003-0.006,0.007-0.012,0.01-0.018C357.082,299.986,353.329,286.438,342.679,280.273z     M338.051,302.996c-0.916,1.576-2.435,2.694-4.28,3.148c-1.881,0.464-3.912,0.176-5.581-0.79l-19.581-11.307V286h0.001l6.99-4.036    l19.573,11.297C338.616,295.254,339.933,299.711,338.051,302.996z" fill="#FFFFFF"/>
	</g>
</g>
<g>
	<g>
		<path d="M437.012,74.991C388.656,26.633,324.377,0,256.016,0C114.848,0,0,114.842,0,256.001    c0,68.366,26.638,132.65,75.006,181.012C123.37,485.369,187.654,512,256.016,512c68.361,0,132.641-26.631,180.996-74.988    C485.369,388.653,512,324.369,512,256.001C512,187.635,485.369,123.351,437.012,74.991z M247.935,100.372    c-1.488-4.308-3.697-8.271-6.447-11.586l13.628-41.277c1.415,4.223,2.811,8.333,4.188,12.389    c3.113,9.164,6.323,18.616,9.592,28.91c-9.969,11.969-11.498,30.516-3.142,42.662c1.816,2.697,4.109,5.027,6.818,6.926    c8.23,5.94,13.143,15.609,13.143,25.874v20.351c0,3.745,2.016,7.233,5.262,9.103c3.242,1.869,7.266,1.861,10.489-0.008    l39.335-22.717c3.587-2.072,4.815-6.659,2.744-10.246c-2.071-3.587-6.66-4.813-10.246-2.744l-32.584,18.818V164.27    c0-15.093-7.26-29.328-19.419-38.077c-0.03-0.021-0.06-0.042-0.089-0.063c-1.213-0.846-2.229-1.874-3.021-3.055    c-0.02-0.029-0.039-0.058-0.059-0.087c-4.83-6.992-3.277-19.01,3.315-25.707c2.734-2.769,3.707-6.799,2.539-10.52    c-3.572-11.368-7.058-21.632-10.429-31.558c103.282,8.93,184.005,96.879,184.005,200.799c0,29.421-6.21,57.807-18.458,84.372    c-0.054,0.123-0.101,0.249-0.153,0.374l-22.991-25.477c-2.61-2.888-6.564-4.091-10.339-3.144l-0.289,0.067    c-0.033,0.008-0.066,0.017-0.1,0.024c-2.796,0.691-5.922,0.731-9.062,0.108c-7.357-1.436-15.141-6.844-15.783-14.403    c-0.003-0.041-0.007-0.081-0.012-0.122c-1.515-14.909-10.219-28.311-23.281-35.848l-10.858-6.271l81.326-46.968    c2.435-1.395,4.177-3.658,4.906-6.374c0.729-2.719,0.354-5.556-1.05-7.974l-9.537-16.513c-1.401-2.415-3.656-4.146-6.35-4.874    c-2.72-0.736-5.558-0.363-7.969,1.037l-101.535,58.442l-5.304-3.066v-7.08l100.976-58.509c5.005-2.906,6.714-9.34,3.822-14.321    l-9.112-15.812c-2.894-4.985-9.317-6.709-14.337-3.828l-19.71,11.384c-3.587,2.071-4.815,6.658-2.744,10.245    c2.071,3.587,6.66,4.813,10.246,2.744l15.811-9.132l4.609,7.998l-99.367,57.577c-3.204,1.881-5.193,5.355-5.193,9.068v12.26    c0,3.729,2.005,7.21,5.246,9.093l9.778,5.653c3.224,1.871,7.241,1.887,10.507,0.023l99.893-57.497l5.029,8.709l-84.182,48.617    c-3.245,1.866-5.261,5.352-5.261,9.097c0,3.744,2.016,7.229,5.249,9.09l17.612,10.171c8.885,5.127,14.808,14.215,15.852,24.319    c1.367,15.623,15.386,25.353,27.829,27.78c4.464,0.886,9.015,0.954,13.293,0.21l29.692,32.902    c-4.551-0.954-9.006-1.875-13.402-2.783c-9.617-1.987-19.522-4.034-30.034-6.348c-1.449-3.969-3.688-7.778-6.621-11.224    c-7.514-8.752-18.548-13.677-28.833-12.867c-3.278,0.278-6.415,1.108-9.326,2.467c-9.24,4.15-20.062,3.561-28.96-1.578    l-17.598-10.162c-3.239-1.88-7.265-1.886-10.507-0.018c-3.242,1.867-5.256,5.353-5.256,9.095v64.51c0,4.143,3.358,7.5,7.5,7.5    c4.142,0,7.5-3.357,7.5-7.5v-56.706l10.86,6.271c13.082,7.555,29.033,8.392,42.673,2.241c0.036-0.016,0.071-0.032,0.106-0.049    c1.313-0.617,2.751-0.995,4.234-1.121c5.469-0.428,11.842,2.583,16.205,7.664c2.438,2.863,4.052,6.063,4.668,9.252    c0.566,2.93,2.814,5.244,5.726,5.896c12.267,2.745,23.634,5.094,34.627,7.365c0.287,0.059,0.577,0.119,0.864,0.179    c-0.089,0.115-0.181,0.227-0.265,0.346c-37.787,53.205-99.246,84.97-164.402,84.97c-65.308,0-126.846-31.871-164.614-85.257    c-0.018-0.026-0.04-0.048-0.059-0.073l31.929-7.095c3.83-0.87,6.836-3.769,7.846-7.564c0.012-0.046,0.024-0.092,0.035-0.138    l0.042-0.168c0.83-2.736,2.36-5.429,4.438-7.805c4.924-5.646,13.501-9.675,20.356-6.452c0.036,0.017,0.072,0.033,0.108,0.05    c13.64,6.15,29.592,5.312,42.67-2.239l10.893-6.283v93.946c0,5.79,4.71,10.5,10.5,10.5h18.34c5.79,0,10.5-4.71,10.5-10.49    l0.146-116.761l6.024-3.477l6.06,3.495l0.02,116.732c0,5.79,4.71,10.5,10.5,10.5h18.47c5.79,0,10.5-4.71,10.5-10.5V424    c0-4.143-3.358-7.5-7.5-7.5c-4.136,0-7.489,3.348-7.5,7.48h-9.471l-0.019-114.83c0-3.765-2.025-7.258-5.253-9.098l-10.54-6.078    c-3.248-1.886-7.284-1.887-10.516-0.011l-10.486,6.051c-3.26,1.858-5.286,5.348-5.286,9.096l-0.144,114.87h-9.346v-97.24    c0-3.737-2.008-7.221-5.24-9.09c-3.231-1.87-7.251-1.873-10.497-0.007l-17.653,10.182c-8.895,5.138-19.715,5.727-28.956,1.58    c-14.202-6.636-29.642,0.625-37.979,10.188c-3.011,3.443-5.36,7.37-6.872,11.466l-41.769,9.281    c3.018-3.565,5.924-7.063,8.79-10.515c6.051-7.284,12.293-14.799,19.317-22.608c15.353,2.646,32.196-5.302,38.529-18.609    c1.45-3.042,2.314-6.196,2.57-9.379c1.062-10.094,6.984-19.166,15.86-24.283l17.599-10.164c3.245-1.866,5.261-5.352,5.261-9.097    c0-3.744-2.016-7.229-5.25-9.09l-84.194-48.62l5.021-8.662l98.877,55.517c2.663,1.486,5.839,1.743,8.753,0.69l10.995-4.043    c4.089-1.526,6.837-5.483,6.837-9.847v-11.65c0-3.734-2.002-7.216-5.22-9.084L120.053,153.1l4.629-8.017l84.211,48.623    c3.236,1.878,7.26,1.884,10.501,0.016c3.246-1.869,5.262-5.357,5.262-9.103V164.27c0-10.281,4.9-19.953,13.111-25.884    C250.601,129.409,252.043,112.41,247.935,100.372z M15,256.001c0-127.535,99.58-232.25,225.078-240.479l-8.282,25.279    c-32.588,3.639-64.3,14.8-91.896,32.365c-3.494,2.225-4.524,6.86-2.3,10.354c2.224,3.495,6.862,4.521,10.354,2.3    c26.817-17.07,56.5-27.297,88.225-30.397c0.192-0.019,0.374-0.068,0.563-0.097L226.415,86.61    c-1.196,3.693-0.28,7.697,2.389,10.495c0.119,0.129,0.239,0.253,0.363,0.378c1.96,2.066,3.548,4.756,4.585,7.759    c2.421,7.096,1.617,16.542-4.605,20.871c-0.033,0.022-0.066,0.046-0.099,0.069c-12.14,8.739-19.388,22.978-19.388,38.087v12.558    l-81.355-46.974c-5.003-2.904-11.441-1.19-14.359,3.835l-9.132,15.812c-2.854,4.978-1.15,11.392,3.826,14.313l101.021,58.747    v5.936l-6.064,2.23l-100.935-56.673c-4.961-2.774-11.334-1.034-14.219,3.905l-9.509,16.405c-1.4,2.43-1.772,5.258-1.049,7.965    c0.726,2.718,2.468,4.987,4.897,6.386l81.337,46.971l-10.853,6.268c-13.059,7.528-21.768,20.924-23.294,35.832    c-0.007,0.066-0.013,0.133-0.018,0.198c-0.104,1.366-0.494,2.77-1.164,4.174c-3.649,7.666-14.841,12.314-23.927,9.958    c-3.782-0.993-7.767,0.188-10.417,3.086c-7.975,8.759-14.85,17.035-21.499,25.04c-0.04,0.048-0.081,0.097-0.121,0.146    c-0.127-0.404-0.263-0.807-0.441-1.199c-11.904-26.235-17.939-54.223-17.939-83.187c0-56.751,24.166-111.211,66.301-149.418    c3.068-2.782,3.3-7.525,0.518-10.594c-2.783-3.068-7.525-3.302-10.594-0.518C65.406,136.515,39.446,195.026,39.446,256    c0,30.13,6.082,59.283,18.083,86.698L39.82,362.466C23.933,330.345,15,294.194,15,256.001z M256.016,497    c-83.863,0-157.856-43.045-201.043-108.207l25.908-5.426c40.708,55.905,105.952,89.191,175.135,89.191    c69.024,0,134.182-33.173,174.907-88.891l25.906,5.431C413.62,454.091,339.739,497,256.016,497z M453.947,343.954    c12.353-27.767,18.614-57.342,18.614-87.953c0-54.545-20.388-106.696-57.409-146.847C379.263,70.231,330.9,46.007,278.496,40.592    l-8.258-25.178C396.519,22.805,497,127.89,497,256.001c0,38.664-9.153,75.234-25.404,107.651L453.947,343.954z" fill="#FFFFFF"/>
	</g>
</g>
<g>
</g>
<g>
</g>
<g>
</g>
<g>
</g>
<g>
</g>
<g>
</g>
<g>
</g>
<g>
</g>
<g>
</g>
<g>
</g>
<g>
</g>
<g>
</g>
<g>
</g>
<g>
</g>
<g>
</g>
</svg>
